# xmcd CD database file
#
# Track frame offsets:
#	150
#	14369
#	34288
#	53170
#	72066
#	91126
#	105590
#	123649
#	144700
#	163704
#	192746
#	212808
#	230995
#	248206
#	265885
#	281088
#
# Disc length: 4049 seconds
#
# Revision: 0
# Processed by: cddbd v1.5PL3 Copyright (c) Steve Scherf et al.
# Submitted via: freeDB plugin v1.0
#
DISCID=f70fcf10
DTITLE=門あさ美 - Ｔｗｉｎ　Ｖｅｒｙ　Ｂｅｓｔ　Ｃｏｌｌｅｃｔｉｏｎ　１
DYEAR=1900
DGENRE=Misc
TTITLE0=Ｆａｓｃｉｎａｔｉｏｎ
TTITLE1=Ｂｌｕｅ
TTITLE2=Ｍｏｒｎｉｎｇ　Ｋｉｓｓ
TTITLE3=Ｎｉｇｈｔ
TTITLE4=Ｌｏｎｅｌｙ　Ｌｏｎｅｌｙ
TTITLE5=Ｈｏｎｅｙ
TTITLE6=Ｓｅａｓｏｎ
TTITLE7=Ｈｏｌｄ　Ｏｎ　Ｍｙ　Ｈｅａｒｔ
TTITLE8=お好きにせめて
TTITLE9=自画像
TTITLE10=月下美人
TTITLE11=プロミス
TTITLE12=感度は良好
TTITLE13=Ｍｒｓ．アバンチュール
TTITLE14=美姫伝説
TTITLE15=恋人から離陸
EXTD=
EXTT0=
EXTT1=
EXTT2=
EXTT3=
EXTT4=
EXTT5=
EXTT6=
EXTT7=
EXTT8=
EXTT9=
EXTT10=
EXTT11=
EXTT12=
EXTT13=
EXTT14=
EXTT15=
PLAYORDER=
